<!-- 
   @author Mohd Khairi Mohd Adnan
   @company DNSVault Sdn Bhd
   Copyright (c) DNSVault Sdn Bhd, All Rights Reserved.
-->

<svg version="1.1" id="Layer_1" xmlns="http://www.w3.org/2000/svg" xmlns:xlink="http://www.w3.org/1999/xlink" x="0px" y="0px"
width="1026.248px" height="228.021px" viewBox="0 0 1026.248 228.021" enable-background="new 0 0 1026.248 228.021"
xml:space="preserve" class="svg-content">
    
    <path fill="#0066FF" d="M229.546,95.026h34.788c5.613,0,9.783,1.015,12.413,3.025c2.675,1.978,4,5.112,4,9.349v12.729
    c0,4.102-1.095,7.089-3.275,9.005c-2.18,1.913-5.646,2.827-10.357,2.827h-37.568L229.546,95.026L229.546,95.026z M316.134,77.236
    v72.349h22.11v-52.62l43.584,52.62h32.476V77.236h-22.059v53.046l-43.331-53.046H316.134z M207.427,77.236v72.349h70.176
    c8.771,0,15.226-1.858,19.266-5.56c4.04-3.715,5.995-9.632,5.995-17.668v-24.859c0-8.458-2.469-14.609-7.511-18.474
    c-5.052-3.893-13.152-5.788-24.239-5.788H207.427L207.427,77.236z M457.868,76.323c-7.717,0-13.251,0.44-16.664,1.278
    c-3.426,0.841-6.181,2.259-8.308,4.273c-1.779,1.782-3.064,4.021-3.868,6.702c-0.824,2.699-1.227,6.107-1.227,10.258
    c0,8.024,1.496,13.557,4.561,16.603c3.083,3.044,9.031,4.672,17.749,4.944l34.77,0.786c4.464,0.324,7.391,0.991,8.735,1.934
    c1.356,0.938,2.068,2.471,2.068,4.653c0,2.125-0.595,3.694-1.766,4.629c-1.167,0.924-3.137,1.345-5.878,1.345h-27.877
    c-4.255,0-7.03-0.459-8.354-1.397c-1.337-0.981-2.008-2.838-2.008-5.554v-1.32l-21.922,0.058c-0.118,1.418-0.192,2.624-0.251,3.62
    c-0.04,0.972-0.057,1.684-0.057,2.105c0,7.391,2.066,12.428,6.185,15.146c4.101,2.695,12.216,4.041,24.358,4.041h29.562
    c6.34,0,11.125-0.291,14.479-0.842c3.353-0.519,6.046-1.36,8.005-2.586c2.968-1.957,5.074-4.309,6.301-7.07
    c1.26-2.752,1.875-6.62,1.875-11.642c0-8.46-1.724-14.414-5.154-17.923c-3.371-3.504-9.189-5.381-17.497-5.605l-36.556-0.559
    c-3.314-0.25-5.533-0.844-6.777-1.738c-1.248-0.944-1.879-2.452-1.879-4.521c0-2.11,0.691-3.638,2.068-4.48
    c1.357-0.846,4.153-1.269,8.407-1.269h25.578c2.438,0,4.256,0.613,5.462,1.819c1.226,1.188,1.876,3.025,1.876,5.425v0.243h21.33
    c0.1-1.167,0.174-1.948,0.174-2.47c0.039-0.517,0.059-1.047,0.059-1.508c0-6.841-1.86-11.742-5.573-14.787
    c-3.678-3.044-9.73-4.591-18.115-4.591L457.868,76.323L457.868,76.323z"/>
    
    <path fill="#8F9192" d="M674.737,101.977l8.059,14.596h-15.871L674.737,101.977z M674.737,87.003l-3.159,5.802l-13.81,25.64
    l-2.852,5.251h39.932l-2.917-5.251l-14.054-25.64L674.737,87.003z M905.299,80.803h75.787V91.41h-30.404v54.606h-14.975V91.411
    h-30.408V80.803z M843.854,80.803h15.089v54.835h48.348v10.379h-63.437V80.803z M737.33,80.803h14.955v39.326
    c0,5.441,1.206,9.996,4.73,12.68l0.059,0.059c3.792,2.792,8.979,3.142,16.732,3.142h12.603c6.528,0,11.337-0.517,14.783-3.37
    v-0.063c3.309-2.79,4.421-7.215,4.421-12.445V80.803h15.033v46.167c0,7.864-1.992,12.537-5.519,15.26
    c-3.465,2.682-10.76,4.65-21.692,4.65h-24.777c-13,0-21.675-1.911-25.446-4.481c-3.773-2.563-5.882-7.253-5.882-15.429V80.803
    L737.33,80.803z M663.037,80.803h24.051l35.021,65.214h-16.294l-5.996-10.315l-1.028-1.742H650.44l-1.039,1.742l-6.051,10.315
    h-16.063L663.037,80.803z M530.57,80.803h16.122l26.231,49.952l3.051,5.917l3.25-5.796l28-50.073h15.449l-34.888,65.214h-22.615
    L530.57,80.803z M898.143,73.68v24.849h30.422v54.616h29.261V98.529h30.424V73.68H898.143z M836.691,73.68v79.465h77.759v-24.624
    h-48.366V73.68H836.691z M730.172,73.68v53.29c0,9.492,2.853,17.118,9.039,21.346c6.222,4.236,15.835,5.668,29.447,5.668h24.777
    c11.704,0,20.334-1.644,26.06-6.09c5.706-4.398,8.295-11.771,8.295-20.924V73.68h-29.319v46.449c0,4.141-0.976,6.149-1.875,6.951
    c-0.783,0.636-4.309,1.8-10.187,1.8h-12.603c-7.217,0-11.773-1.279-12.482-1.8c-0.9-0.724-1.877-2.662-1.877-6.951V73.68H730.172z
    M658.787,73.68l-1.019,1.858l-39.692,72.354l-2.909,5.251h32.304l1.033-1.742l6.05-10.319h40.116l5.992,10.319l1.033,1.742h32.421
    l-2.854-5.251l-38.891-72.354l-1.034-1.858H658.787z M518.696,73.68l2.796,5.242l38.354,72.366l0.959,1.856h31.271l0.976-1.856
    l38.717-72.366l2.854-5.242h-31.633l-1.034,1.8l-25.809,46.167L551.959,75.61l-0.955-1.93H518.696z"/>
    
    <!--background vault-->
    <polygon fill="#8F9192" points="163.216,52.621 150.866,45.491 147.655,50.996 159.981,58.146 	"/>
    <rect x="41.949" y="54.385" fill="#8F9192" width="25.657" height="11.2"/>
    <rect x="41.949" y="161.35" fill="#8F9192" width="25.657" height="11.202"/>
    <polygon fill="#8F9192" points="147.655,176.298 150.866,181.822 163.216,174.726 159.981,169.22 	"/>
    <rect x="45.297" y="106.258" fill="#8F9192" width="6.386" height="14.168"/>
    
    <path fill="#8F9192" d="M119.998,46.586c-7.017,0-13.824,1.089-20.185,3.077H69.917V67.76H42.008v20.476h10.819v50.421H42.008
    v20.513h27.908v18.044h29.72c6.407,2.023,13.265,3.156,20.361,3.156c37.083,0,67.168-29.954,67.168-66.902
    C187.167,76.534,157.08,46.586,119.998,46.586z"/>
    
    <!--handle-->
    <g transform="translate(0, 0)">  	
        <path id="handler" class="gear"  fill="#FFFFFF" d="M116.731,64.948h6.466v19.196c8.465,0.913,15.843,5.423,20.658,11.922l16.707-9.615l3.235,5.562
        l-16.725,9.614c1.605,3.651,2.558,7.65,2.558,11.877c0,4.219-0.953,8.233-2.558,11.869l16.725,9.61l-3.235,5.587l-16.707-9.641
        c-4.814,6.519-12.192,11.011-20.658,11.933v19.192h-6.466v-19.192c-8.485-0.922-15.862-5.413-20.658-11.933l-16.706,9.641
        l-3.229-5.587l16.719-9.61c-1.605-3.636-2.499-7.65-2.499-11.869c0-4.227,0.894-8.226,2.499-11.877l-16.719-9.614l3.229-5.562
        l16.706,9.615c4.796-6.517,12.173-11.009,20.658-11.922V64.948L116.731,64.948z">
        <animateTransform attributeName="transform" attributeType="XML" type="rotate" from="-360 119.966796875  113.501953125" to="0 119.966796875  113.501953125" dur="16s" repeatCount="indefinite" ></animateTransform>
        </path>
    </g>
    
    <!-- blue circle -->
    <path fill="#0066FF" d="M120.012,91.825c-12.002,0-21.809,9.658-21.809,21.625c0,11.959,9.806,21.728,21.809,21.728
    c12.011,0,21.718-9.769,21.718-21.728C141.73,101.483,132.023,91.825,120.012,91.825z"/>
    
    <!--v-->
    <polygon  class="flipword" fill="#FFFFFF" points="109.11,103.18 114.364,103.18 119.962,120.139 125.566,103.18 130.823,103.18 121.764,128.607 
    118.167,128.607">
        <animate attributeName="fill" 
        attributeType="XML"
        from="#0066FF"
        to="white"
        dur="2s"
        repeatCount="0"/>
    </polygon>
</svg>